<svg width="210" height="32" viewBox="0 0 210 32" fill="none" xmlns="http://www.w3.org/2000/svg">
<path d="M0 5.06379C0 2.26714 2.16841 0 4.84327 0H15.1352C17.8101 0 19.9785 2.26714 19.9785 5.06379V21.5211C19.9785 24.3178 17.8101 26.5849 15.1352 26.5849H4.84327C2.16841 26.5849 0 24.3178 0 21.5211V5.06379Z" fill="#0099CC"/>
<path d="M15.6933 15.4584C15.5861 17.0079 15.0375 18.2277 14.0474 19.1178C13.0636 20.0079 11.7645 20.453 10.1501 20.453C8.38428 20.453 6.99373 19.8332 5.97841 18.5936C4.9694 17.3475 4.46489 15.6397 4.46489 13.4705V12.5903C4.46489 11.2056 4.69822 9.98583 5.16489 8.93087C5.63156 7.87592 6.29688 7.06821 7.16085 6.50777C8.03113 5.94073 9.04014 5.65721 10.1879 5.65721C11.7771 5.65721 13.0573 6.10227 14.0285 6.99239C14.9996 7.88251 15.5609 9.13197 15.7123 10.7408H12.8744C12.805 9.8111 12.5559 9.13857 12.1271 8.72318C11.7046 8.30119 11.0582 8.0902 10.1879 8.0902C9.24195 8.0902 8.53248 8.44625 8.05951 9.15835C7.59284 9.86385 7.3532 10.9617 7.34058 12.4518V13.5397C7.34058 15.0958 7.56446 16.2332 8.01221 16.9518C8.46626 17.6705 9.17888 18.0299 10.1501 18.0299C11.0266 18.0299 11.6793 17.8222 12.1082 17.4068C12.5433 16.9848 12.7924 16.3354 12.8555 15.4584H15.6933Z" fill="white"/>
<path d="M23.0055 5.06379C23.0055 2.26714 25.1739 0 27.8488 0H38.1408C40.8156 0 42.984 2.26714 42.984 5.06379V21.5211C42.984 24.3178 40.8156 26.5849 38.1408 26.5849H27.8488C25.1739 26.5849 23.0055 24.3178 23.0055 21.5211V5.06379Z" fill="#CB6060"/>
<path d="M38.8502 13.3815C38.8502 14.7991 38.6106 16.0419 38.1313 17.1101C37.652 18.1782 36.9646 19.0024 36.0691 19.5826C35.1799 20.1629 34.1583 20.453 33.0043 20.453C31.8628 20.453 30.8443 20.1662 29.9488 19.5925C29.0533 19.0189 28.3596 18.2013 27.8677 17.1398C27.3758 16.0716 27.1267 14.8452 27.1204 13.4606V12.7485C27.1204 11.3309 27.3632 10.0847 27.8488 9.00999C28.3407 7.92866 29.0313 7.10118 29.9205 6.52755C30.816 5.94732 31.8376 5.65721 32.9853 5.65721C34.1331 5.65721 35.1516 5.94732 36.0408 6.52755C36.9363 7.10118 37.6268 7.92866 38.1124 9.00999C38.6043 10.0847 38.8502 11.3276 38.8502 12.7386V13.3815ZM35.9745 12.7287C35.9745 11.2188 35.716 10.0715 35.1989 9.28692C34.6817 8.5023 33.9439 8.10998 32.9853 8.10998C32.0331 8.10998 31.2984 8.499 30.7813 9.27703C30.2641 10.0485 30.0024 11.1825 29.9961 12.6793V13.3815C29.9961 14.8518 30.2547 15.9925 30.7718 16.8035C31.2889 17.6145 32.0331 18.02 33.0043 18.02C33.9565 18.02 34.688 17.631 35.1989 16.8529C35.7097 16.0683 35.9682 14.9276 35.9745 13.4309V12.7287Z" fill="white"/>
<path d="M46.0111 5.06379C46.0111 2.26714 48.1795 0 50.8544 0H61.1463C63.8212 0 65.9896 2.26714 65.9896 5.06379V21.5211C65.9896 24.3178 63.8212 26.5849 61.1463 26.5849H50.8544C48.1795 26.5849 46.0111 24.3178 46.0111 21.5211V5.06379Z" fill="#0099CC"/>
<path d="M50.93 20.2552V5.85501H55.1679C56.3787 5.85501 57.4602 6.14183 58.4125 6.71546C59.3711 7.2825 60.1184 8.0935 60.6544 9.14846C61.1904 10.1968 61.4585 11.3902 61.4585 12.7287V13.3914C61.4585 14.7298 61.1936 15.92 60.6639 16.9617C60.1404 18.0035 59.3994 18.8112 58.4409 19.3848C57.4823 19.9585 56.4008 20.2486 55.1963 20.2552H50.93ZM53.7679 8.25834V17.8716H55.1395C56.2494 17.8716 57.0976 17.4925 57.6841 16.7343C58.2706 15.976 58.5702 14.8914 58.5828 13.4804V12.7188C58.5828 11.2551 58.2927 10.1474 57.7125 9.39571C57.1323 8.63746 56.2841 8.25834 55.1679 8.25834H53.7679Z" fill="white"/>
<path d="M69.0166 5.06379C69.0166 2.26714 71.185 0 73.8599 0H84.1518C86.8267 0 88.9951 2.26714 88.9951 5.06379V21.5211C88.9951 24.3178 86.8267 26.5849 84.1518 26.5849H73.8599C71.185 26.5849 69.0166 24.3178 69.0166 21.5211V5.06379Z" fill="#0099CC"/>
<path d="M82.7708 14.0144H77.3221V17.8716H83.7167V20.2552H74.4842V5.85501H83.6978V8.25834H77.3221V11.6902H82.7708V14.0144Z" fill="white"/>
<path d="M92.0222 5.06379C92.0222 2.26714 94.1906 0 96.8654 0H107.157C109.832 0 112.001 2.26714 112.001 5.06379V21.5211C112.001 24.3178 109.832 26.5849 107.157 26.5849H96.8654C94.1906 26.5849 92.0222 24.3178 92.0222 21.5211V5.06379Z" fill="#CB6060"/>
<path d="M107.602 20.2552H104.764L99.2398 10.7803V20.2552H96.4019V5.85501H99.2398L104.774 15.3496V5.85501H107.602V20.2552Z" fill="white"/>
<path d="M115.028 5.06379C115.028 2.26714 117.196 0 119.871 0H130.163C132.838 0 135.006 2.26714 135.006 5.06379V21.5211C135.006 24.3178 132.838 26.5849 130.163 26.5849H119.871C117.196 26.5849 115.028 24.3178 115.028 21.5211V5.06379Z" fill="#CB6060"/>
<path d="M127.202 17.2881H122.226L121.28 20.2552H118.263L123.39 5.85501H126.02L131.175 20.2552H128.158L127.202 17.2881ZM122.993 14.8848H126.436L124.705 9.49462L122.993 14.8848Z" fill="white"/>
<path d="M138.033 5.06379C138.033 2.26714 140.202 0 142.877 0H153.168C155.843 0 158.012 2.26714 158.012 5.06379V21.5211C158.012 24.3178 155.843 26.5849 153.168 26.5849H142.877C140.202 26.5849 138.033 24.3178 138.033 21.5211V5.06379Z" fill="#0099CC"/>
<path d="M144.475 5.85501L148.013 16.2991L151.532 5.85501H155.259V20.2552H152.412V16.3189L152.695 9.52429L148.978 20.2552H147.029L143.321 9.53418L143.605 16.3189V20.2552H140.767V5.85501H144.475Z" fill="white"/>
<path d="M161.039 5.06379C161.039 2.26714 163.207 0 165.882 0H176.174C178.849 0 181.017 2.26714 181.017 5.06379V21.5211C181.017 24.3178 178.849 26.5849 176.174 26.5849H165.882C163.207 26.5849 161.039 24.3178 161.039 21.5211V5.06379Z" fill="#CB6060"/>
<path d="M174.793 14.0144H169.344V17.8716H175.739V20.2552H166.506V5.85501H175.72V8.25834H169.344V11.6902H174.793V14.0144Z" fill="white"/>
<path d="M185.375 11.2122C184.682 8.51082 186.216 5.73416 188.799 5.01033L198.741 2.22529C201.324 1.50146 203.98 3.10457 204.672 5.80593L208.746 21.7025C209.439 24.4039 207.905 27.1805 205.322 27.9044L195.38 30.6894C192.797 31.4132 190.141 29.8101 189.449 27.1087L185.375 11.2122Z" fill="black"/>
<path d="M199.887 18.9627C199.748 18.4213 199.459 18.0585 199.02 17.8743C198.579 17.6837 197.843 17.5623 196.811 17.5101C195.778 17.4515 194.944 17.3438 194.31 17.1871C192.58 16.7569 191.53 15.8189 191.16 14.3732C190.967 13.6217 190.997 12.8966 191.249 12.1981C191.505 11.4914 191.968 10.8667 192.639 10.3239C193.315 9.77943 194.126 9.37493 195.07 9.11042C196.02 8.8442 196.914 8.7885 197.75 8.94333C198.584 9.09179 199.29 9.43685 199.866 9.9785C200.448 10.5184 200.846 11.2056 201.06 12.0399L198.319 12.8078C198.156 12.1709 197.837 11.7311 197.364 11.4883C196.889 11.2392 196.304 11.2119 195.609 11.4064C194.939 11.5942 194.457 11.8897 194.162 12.2932C193.866 12.6902 193.779 13.1308 193.903 13.6148C194.019 14.067 194.333 14.3853 194.843 14.5699C195.36 14.7527 196.077 14.8593 196.992 14.8896C198.677 14.9431 199.969 15.2331 200.868 15.7594C201.766 16.2858 202.354 17.0904 202.632 18.1731C202.94 19.3768 202.747 20.4445 202.052 21.3764C201.356 22.3019 200.271 22.9711 198.797 23.3841C197.773 23.6708 196.791 23.7377 195.851 23.5847C194.909 23.4253 194.129 23.0672 193.51 22.5103C192.896 21.9517 192.475 21.2234 192.245 20.3254L194.995 19.5549C195.388 21.0898 196.462 21.6115 198.216 21.12C198.868 20.9374 199.342 20.658 199.637 20.2817C199.931 19.8991 200.014 19.4594 199.887 18.9627Z" fill="white"/>
</svg>
